<svg width="46" height="46" viewBox="0 0 46 46" fill="none" xmlns="http://www.w3.org/2000/svg">
<g clip-path="url(#clip0_1002_41)">
<path d="M22.9999 3C19.0443 3 15.1775 4.17298 11.8885 6.37061C8.59956 8.56824 6.03611 11.6918 4.52236 15.3463C3.0086 19.0009 2.61254 23.0222 3.38424 26.9018C4.15595 30.7814 6.06076 34.3451 8.85781 37.1421C11.6549 39.9392 15.2185 41.844 19.0981 42.6157C22.9778 43.3874 26.9991 42.9913 30.6536 41.4776C34.3081 39.9638 37.4317 37.4004 39.6293 34.1114C41.827 30.8224 42.9999 26.9556 42.9999 23C42.9999 17.6957 40.8928 12.6086 37.1421 8.85786C33.3913 5.10714 28.3043 3 22.9999 3V3ZM22.9999 40.6533C19.5085 40.6533 16.0954 39.618 13.1923 37.6782C10.2892 35.7384 8.02656 32.9813 6.69042 29.7556C5.35429 26.5299 5.00469 22.9804 5.68585 19.556C6.367 16.1316 8.04832 12.9861 10.5172 10.5172C12.986 8.04837 16.1316 6.36706 19.556 5.6859C22.9804 5.00474 26.5299 5.35434 29.7556 6.69047C32.9813 8.02661 35.7384 10.2893 37.6781 13.1923C39.6179 16.0954 40.6532 19.5085 40.6532 23C40.6532 25.3183 40.1966 27.6138 39.3095 29.7556C38.4223 31.8974 37.122 33.8435 35.4827 35.4828C33.8435 37.122 31.8974 38.4224 29.7556 39.3095C27.6138 40.1967 25.3182 40.6533 22.9999 40.6533Z" fill="#444444" fill-opacity="0.901961"/>
<path d="M15.2506 20.6883C17.6723 20.6883 19.6355 18.7252 19.6355 16.3034C19.6355 13.8817 17.6723 11.9185 15.2506 11.9185C12.8289 11.9185 10.8657 13.8817 10.8657 16.3034C10.8657 18.7252 12.8289 20.6883 15.2506 20.6883Z" fill="#444444" fill-opacity="0.901961"/>
<path d="M14.0239 29.8165C14.9958 29.8165 15.7836 29.0286 15.7836 28.0568C15.7836 27.0849 14.9958 26.2971 14.0239 26.2971C13.0521 26.2971 12.2642 27.0849 12.2642 28.0568C12.2642 29.0286 13.0521 29.8165 14.0239 29.8165Z" fill="#444444" fill-opacity="0.901961"/>
<path d="M21.8797 37.1814C23.4406 37.1814 24.706 35.916 24.706 34.3551C24.706 32.7942 23.4406 31.5288 21.8797 31.5288C20.3188 31.5288 19.0534 32.7942 19.0534 34.3551C19.0534 35.916 20.3188 37.1814 21.8797 37.1814Z" fill="#444444" fill-opacity="0.901961"/>
<path d="M32.7763 29.4007C34.8794 29.4007 36.5842 27.6959 36.5842 25.5928C36.5842 23.4898 34.8794 21.7849 32.7763 21.7849C30.6732 21.7849 28.9684 23.4898 28.9684 25.5928C28.9684 27.6959 30.6732 29.4007 32.7763 29.4007Z" fill="#444444" fill-opacity="0.901961"/>
<path d="M28.8085 16.0885C30.0867 16.0885 31.1228 15.0524 31.1228 13.7743C31.1228 12.4962 30.0867 11.4601 28.8085 11.4601C27.5304 11.4601 26.4943 12.4962 26.4943 13.7743C26.4943 15.0524 27.5304 16.0885 28.8085 16.0885Z" fill="#444444" fill-opacity="0.901961"/>
</g>
<defs>
<clipPath id="clip0_1002_41">
<rect width="40" height="40" fill="white" transform="translate(3 3)"/>
</clipPath>
</defs>
</svg>
